<svg xmlns="http://www.w3.org/2000/svg" width="37" height="46" viewBox="0 0 37 46" fill="none"><path d="M8.319 34.6672V0H1.974C0.8836 0 0 0.8836 0 1.974V35.109C0.4512 34.827 0.987 34.6672 1.551 34.6672H8.319Z" fill="#FFE270"></path><path d="M0 37.6281V43.5689C0 44.4243 0.6956 45.1199 1.551 45.1199H34.6766C35.6354 45.1199 36.4156 44.3397 36.4156 43.3809V42.0179H4.6248C4.3522 42.0179 4.136 41.8017 4.136 41.5291V39.6585C4.136 39.3953 4.3522 39.1697 4.6248 39.1697H36.4156V36.0771H1.551C0.6956 36.0771 0 36.7633 0 37.6281Z" fill="#FFE270"></path><path d="M34.4416 0H9.729V34.6672H36.4156V1.974C36.4156 0.8836 35.532 0 34.4416 0ZM29.6946 16.1586C29.6946 16.4876 29.4314 16.7508 29.1024 16.7508H24.3272V28.576C24.3272 28.905 24.064 29.1682 23.735 29.1682H19.8528C19.5238 29.1682 19.2606 28.905 19.2606 28.576V16.7508H14.4854C14.1564 16.7508 13.8932 16.4876 13.8932 16.1586V12.2858C13.8932 11.9568 14.1564 11.6936 14.4854 11.6936H19.2606V7.755C19.2606 7.426 19.5238 7.1628 19.8528 7.1628H23.735C24.064 7.1628 24.3272 7.426 24.3272 7.755V11.6936H29.1024C29.4314 11.6936 29.6946 11.9568 29.6946 12.2858V16.1586Z" fill="#FFE270"></path></svg>