<svg xmlns="http://www.w3.org/2000/svg" width="47" height="36" viewBox="0 0 47 36" fill="none"><path d="M41.0383 7.79541L29.0668 19.8322L41.2733 32.9347C41.4036 32.5336 41.4922 32.1139 41.4922 31.6698V9.63851C41.4922 8.97289 41.3191 8.3528 41.0383 7.79541Z" fill="#FAA11D"></path><path d="M37.3613 5.50781H4.13086C3.52528 5.50781 2.9543 5.64615 2.43555 5.88133L19.7698 23.2241C20.2889 23.7485 21.202 23.7485 21.7236 23.2241L39.0567 5.88133C38.5381 5.64615 37.9669 5.50781 37.3613 5.50781Z" fill="#FAA11D"></path><path d="M27.1236 21.7886L23.6774 25.1658C22.8949 25.9524 21.8541 26.384 20.746 26.384C19.6379 26.384 18.5972 25.9524 17.8159 25.1658L14.5777 21.9982L2.22075 35.3107C2.79475 35.6133 3.43816 35.8008 4.13086 35.8008H37.3613C38.1756 35.8008 38.9302 35.5563 39.5706 35.148L27.1236 21.7886Z" fill="#FAA11D"></path><path d="M0.453844 7.79541C0.173129 8.35271 0 8.97298 0 9.6386V31.6698C0 32.2471 0.120896 32.7958 0.335518 33.2952L12.6357 20.0429L0.453844 7.79541Z" fill="#FAA11D"></path><path d="M42.8691 0H9.63867C7.84588 0 6.33178 1.15462 5.76144 2.75391H37.3613C41.1574 2.75391 44.2461 5.8426 44.2461 9.63867V30.0393C45.8454 29.469 47 27.9549 47 26.1621V4.13086C47 1.85301 45.147 0 42.8691 0Z" fill="#FAA11D"></path></svg>