<svg xmlns="http://www.w3.org/2000/svg" width="47" height="36" viewBox="0 0 47 36" fill="none"><path d="M7.1896 0C7.18834 0 7.18691 0 7.18565 0C6.74112 0 6.32303 0.173283 6.00732 0.4882C5.68813 0.806599 5.51231 1.23055 5.51231 1.68188V26.9013C5.51231 27.8262 6.26764 28.5804 7.19625 28.5827C11.111 28.5921 17.6698 29.408 22.1945 34.143V7.75012C22.1945 7.43663 22.1144 7.14213 21.9633 6.89842C18.2497 0.917848 11.1132 0.00917848 7.1896 0Z" fill="#FCC85A"></path><path d="M41.4878 26.9015V1.68188C41.4878 1.23055 41.312 0.806599 40.9928 0.4882C40.6771 0.173283 40.2587 0 39.8147 0C39.8133 0 39.8118 0 39.8106 0C35.8871 0.00933673 28.7506 0.918006 25.0368 6.89858C24.8857 7.14228 24.8058 7.43679 24.8058 7.75028V34.143C29.3305 29.408 35.8893 28.5921 39.8041 28.5827C40.7325 28.5804 41.4878 27.8262 41.4878 26.9015Z" fill="#FCC85A"></path><path d="M45.3184 5.81592H44.099V26.9013C44.099 29.2625 42.1751 31.1879 39.8102 31.1938C36.4897 31.2017 31.0146 31.851 27.137 35.521C33.8433 33.879 40.9129 34.9464 44.942 35.8645C45.445 35.9791 45.9649 35.8607 46.368 35.5395C46.7696 35.219 47 34.74 47 34.2259V7.49748C47.0002 6.57029 46.2456 5.81592 45.3184 5.81592Z" fill="#FCC85A"></path><path d="M2.90103 26.9013V5.81592H1.68156C0.754535 5.81592 0 6.57029 0 7.49748V34.2254C0 34.7397 0.230412 35.2186 0.632049 35.539C1.03479 35.8601 1.55417 35.9789 2.05804 35.8641C6.08707 34.9457 13.1569 33.8785 19.8629 35.5205C15.9854 31.8507 10.5103 31.2015 7.18976 31.1936C4.82503 31.1879 2.90103 29.2625 2.90103 26.9013Z" fill="#FCC85A"></path></svg>