<svg xmlns="http://www.w3.org/2000/svg" width="84" height="94" viewBox="0 0 84 94" fill="none"><path d="M41.791 0.5C52.7384 0.512857 63.2336 4.86749 70.9746 12.6084C78.7156 20.3494 83.0701 30.8446 83.083 41.792L83.0791 42.3564C82.9074 54.1766 77.359 63.7643 69.957 71.6475C62.4312 79.6625 53.0258 85.8779 45.4893 90.8555L45.4883 90.8564L42.877 92.5869V92.5879C42.5556 92.8017 42.1779 92.915 41.792 92.915C41.4061 92.915 41.0283 92.8016 40.707 92.5879L40.7061 92.5869L38.0957 90.8564L38.0947 90.8555L35.1885 88.9297C28.2364 84.2958 20.2122 78.6608 13.627 71.6475C6.10745 63.6391 0.5001 53.872 0.5 41.792L0.513672 40.7676C0.788036 30.1917 5.10923 20.1076 12.6084 12.6084C20.3491 4.86768 30.844 0.513184 41.791 0.5ZM41.8379 51.125C40.4015 51.1323 39.0263 51.7097 38.0156 52.7305C37.0051 53.7513 36.4421 55.132 36.4492 56.5684C36.4564 58.0049 37.0338 59.3799 38.0547 60.3906C38.5602 60.8911 39.1589 61.2877 39.8174 61.5566C40.475 61.8252 41.1793 61.9602 41.8896 61.957V61.958L41.8906 61.957L41.8926 61.958L41.8916 61.957C43.3275 61.9566 44.7043 61.3873 45.7197 60.3721C46.7355 59.3563 47.3066 57.9785 47.3066 56.542C47.3066 55.1054 46.7355 53.7277 45.7197 52.7119C44.7039 51.6961 43.3262 51.125 41.8896 51.125H41.8379ZM41.792 22.8545C40.6814 22.8545 39.6164 23.2957 38.8311 24.0811C38.0457 24.8664 37.6045 25.9314 37.6045 27.042V41.792C37.6046 42.9025 38.0458 43.9677 38.8311 44.7529C39.6163 45.538 40.6815 45.9795 41.792 45.9795C42.9025 45.9794 43.9677 45.5382 44.7529 44.7529C45.5382 43.9677 45.9794 42.9025 45.9795 41.792V27.042C45.9795 25.9316 45.538 24.8663 44.7529 24.0811C43.9677 23.2958 42.9025 22.8546 41.792 22.8545Z" fill="#FFB10A" stroke="black"></path></svg>