<svg xmlns="http://www.w3.org/2000/svg" width="181" height="181" viewBox="0 0 181 181" fill="none"><circle cx="90.5" cy="90.5" r="90.5" fill="#FCAE09" fill-opacity="0.02"></circle><circle cx="90" cy="91" r="66" fill="#FCAE09"></circle><g clip-path="url(#clip0_7_420)"><path d="M77.6078 60.1318L66.4368 71.3016H77.6078V60.1318Z" fill="#1B1B1B"></path><path d="M81.5449 82.4455V99.6287C81.5449 103.991 85.0937 107.54 89.4559 107.54H111.77V119.199C111.77 120.267 110.903 121.133 109.836 121.133H76.7122L81.2922 115.484C82.6174 113.85 82.8894 111.565 81.9832 109.667C81.184 107.992 79.5765 106.84 77.7654 106.592V99.1788C77.7654 96.1521 75.3033 93.6912 72.2778 93.6912H65.304V75.1687H79.5404C80.6077 75.1687 81.474 74.3025 81.474 73.2351V59H109.836C110.903 59 111.77 59.8663 111.77 60.9336V74.5345H89.4559C85.0937 74.5345 81.5449 78.0833 81.5449 82.4455Z" fill="#1B1B1B"></path><path d="M95.7634 88.7916C95.7634 89.6694 94.9938 90.4119 94.085 90.4119C93.7202 90.4119 93.0912 90.4145 92.515 90.4184C92.5072 88.7271 92.5124 89.3858 92.5059 87.1699H94.085C94.9938 87.1699 95.7634 87.9124 95.7634 88.7916Z" fill="#1B1B1B"></path><path d="M104.452 87.1696H102.822C102.825 88.4367 102.827 90.2852 102.827 91.0252C102.827 91.9056 102.833 93.6768 102.836 94.8975C103.449 94.8936 104.129 94.8885 104.515 94.882C106.457 94.8472 107.328 92.9265 107.328 91.0368C107.328 89.1676 106.572 87.1696 104.452 87.1696ZM104.452 87.1696H102.822C102.825 88.4367 102.827 90.2852 102.827 91.0252C102.827 91.9056 102.833 93.6768 102.836 94.8975C103.449 94.8936 104.129 94.8885 104.515 94.882C106.457 94.8472 107.328 92.9265 107.328 91.0368C107.328 89.1676 106.572 87.1696 104.452 87.1696ZM118.955 78.4014H89.456C87.2259 78.4014 85.4122 80.2151 85.4122 82.4452V99.6284C85.4122 101.858 87.2259 103.672 89.456 103.672H118.955C121.185 103.672 123 101.858 123 99.6284V82.4452C123 80.2151 121.185 78.4014 118.955 78.4014ZM94.085 92.9897C93.7189 92.9897 93.0821 92.9923 92.5021 92.9961V96.193C92.5021 96.9046 91.9258 97.4821 91.213 97.4821C90.5014 97.4821 89.9239 96.9046 89.9239 96.193V85.8805C89.9239 85.1793 90.4937 84.5914 91.213 84.5914H94.085C96.4311 84.5914 98.3415 86.4748 98.3415 88.7912C98.3415 91.1064 96.4311 92.9897 94.085 92.9897ZM104.56 97.4589C103.727 97.473 101.645 97.4821 101.556 97.4821C100.871 97.4821 100.242 96.9639 100.242 96.0254V85.8908C100.242 85.887 100.242 85.8831 100.242 85.8831C100.24 85.1702 100.818 84.5914 101.531 84.5914H104.452C107.713 84.5914 109.906 87.1812 109.906 91.0368C109.906 94.7041 107.656 97.4047 104.56 97.4589ZM116.867 89.6497C117.578 89.6497 118.156 90.2272 118.156 90.9388C118.156 91.6504 117.578 92.2279 116.867 92.2279H114.308V96.193C114.308 96.9046 113.732 97.4821 113.019 97.4821C112.307 97.4821 111.73 96.9046 111.73 96.193V85.8805C111.73 85.1689 112.307 84.5914 113.019 84.5914H117.199C117.911 84.5914 118.488 85.1689 118.488 85.8805C118.488 86.5921 117.911 87.1696 117.199 87.1696H114.308V89.6497H116.867ZM104.452 87.1696H102.822C102.825 88.4367 102.827 90.2852 102.827 91.0252C102.827 91.9056 102.833 93.6768 102.836 94.8975C103.449 94.8936 104.129 94.8885 104.515 94.882C106.457 94.8472 107.328 92.9265 107.328 91.0368C107.328 89.1676 106.572 87.1696 104.452 87.1696Z" fill="#1B1B1B"></path><path d="M78.2885 113.049L69.0839 124.401C68.7761 124.78 68.3138 125 67.8257 125C67.3363 125 66.8741 124.78 66.5663 124.401L57.3617 113.049C56.9685 112.564 56.8886 111.896 57.1575 111.332C57.4264 110.768 57.9957 110.409 58.62 110.409H61.7523V99.1787C61.7523 98.2843 62.477 97.5586 63.3723 97.5586H72.2777C73.1731 97.5586 73.8978 98.2845 73.8978 99.1787V110.409H77.0301C77.6544 110.409 78.2236 110.768 78.4925 111.332C78.7616 111.896 78.6816 112.564 78.2885 113.049Z" fill="#1B1B1B"></path></g><defs><clipPath id="clip0_7_420"><rect width="66" height="66" fill="white" transform="translate(57 59)"></rect></clipPath></defs></svg>