<svg xmlns="http://www.w3.org/2000/svg" width="181" height="181" viewBox="0 0 181 181" fill="none"><circle cx="90.5" cy="90.5" r="90.5" fill="#FCAE09" fill-opacity="0.02"></circle><circle cx="90" cy="91" r="66" fill="#FCAE09"></circle><g clip-path="url(#clip0_7_425)"><path d="M112.78 68.1213C114.348 65.4029 113.692 62.2965 111.669 60.4526C105.91 55.1935 98.3024 52.2988 90.5 52.2988C82.6976 52.2988 75.0898 55.1935 69.331 60.4526C67.308 62.2965 66.6516 65.4029 68.2196 68.1214C65.0601 72.6557 63.3203 77.9121 63.3203 83.5C63.3203 93.1692 63.3203 100.373 63.3203 108.461C63.3203 111.902 66.1195 114.701 69.5605 114.701C73.0016 114.701 75.8008 111.902 75.8008 108.461V91.8203C75.8008 88.3793 73.0016 85.5801 69.5605 85.5801C68.8278 85.5801 68.1343 85.7301 67.4805 85.9632V83.5C67.4805 78.8986 68.8836 74.5675 71.4179 70.8029C73.549 71.5762 76.0496 71.1851 77.8889 69.5367C84.7548 63.4021 96.245 63.4001 103.111 69.5388C104.797 71.0445 107.167 71.6816 109.584 70.8058C112.117 74.5698 113.52 78.8996 113.52 83.5V85.9632C112.866 85.7301 112.172 85.5801 111.439 85.5801C107.998 85.5801 105.199 88.3793 105.199 91.8203V108.461C105.199 111.902 107.998 114.701 111.439 114.701C114.88 114.701 117.68 111.902 117.68 108.461C117.68 100.704 117.68 91.2433 117.68 83.5C117.68 77.9121 115.94 72.6557 112.78 68.1213Z" fill="#1B1B1B"></path><path d="M98.7248 89.5615C97.1567 87.5512 95.0154 86.2776 92.5801 85.8065V83.5C92.5801 82.3503 91.6497 81.4199 90.5 81.4199C89.3503 81.4199 88.4199 82.3503 88.4199 83.5V98.4437C87.7661 98.2106 87.0726 98.0605 86.3398 98.0605C82.8988 98.0605 80.0996 100.86 80.0996 104.301C80.0996 107.742 82.8988 110.541 86.3398 110.541C89.7808 110.541 92.5801 107.742 92.5801 104.301V90.102C93.9208 90.5576 94.8646 91.3746 95.4463 92.121C96.98 94.0852 97.4878 96.8946 96.8032 99.6368C96.5229 100.75 97.2013 101.879 98.3165 102.158C98.4851 102.2 98.6557 102.221 98.8223 102.221C99.7547 102.221 100.602 101.591 100.837 100.644C101.831 96.6712 101.042 92.5273 98.7248 89.5615Z" fill="#1B1B1B"></path><path d="M55 100.14C55 103.524 56.6496 106.507 59.1602 108.407V91.873C56.6496 93.7735 55 96.7561 55 100.14Z" fill="#1B1B1B"></path><path d="M121.84 91.873V108.408C124.35 106.507 126 103.525 126 100.14C126 96.7562 124.35 93.7735 121.84 91.873Z" fill="#1B1B1B"></path></g><defs><clipPath id="clip0_7_425"><rect width="71" height="71" fill="white" transform="translate(55 48)"></rect></clipPath></defs></svg>