<svg xmlns="http://www.w3.org/2000/svg" width="47" height="47" viewBox="0 0 47 47" fill="none"><g clip-path="url(#clip0_1_134)"><path d="M30.0727 38.7383C29.4588 38.7383 8.39216 38.7383 8.0414 38.7383C6.5229 38.7383 5.2875 39.9737 5.2875 41.4922V45.623C5.2875 46.3835 5.90401 47 6.66445 47H31.4496C32.2101 47 32.8266 46.3835 32.8266 45.623V41.4922C32.8266 39.9737 31.5912 38.7383 30.0727 38.7383Z" fill="#D8B250"></path><path d="M35.3606 4.3443C35.3798 5.09474 35.9996 5.70308 36.7722 5.68564C37.5324 5.66627 38.133 5.03425 38.1136 4.27398C38.0108 0.243367 32.7396 -1.32517 29.9201 1.27103C29.0358 2.08509 27.7255 3.97684 28.8852 7.4989C28.9376 7.65826 28.9752 7.70269 29.2731 8.30662H8.84105C9.13939 7.70177 9.17647 7.65844 9.22898 7.4989C10.3886 3.97684 9.07825 2.08509 8.19406 1.27103C5.38884 -1.31186 0.103819 0.221978 0.000455667 4.27398C-0.0189135 5.03425 0.581622 5.66627 1.34188 5.68564C2.10077 5.70051 2.73407 5.10456 2.75344 4.3443C2.7942 2.74557 5.22911 2.28456 6.32866 3.29708C6.99988 3.91497 7.1104 5.06637 6.64288 6.54568L2.72939 14.3635C-1.08853 21.9904 2.16135 29.7911 9.41836 33.5487V35.9375H28.6957V33.5487C35.9039 29.8162 39.2246 22.0345 35.3847 14.3635L31.4712 6.54559C31.0037 5.06637 31.1142 3.91497 31.7854 3.29699C32.8746 2.2942 35.3194 2.73115 35.3606 4.3443ZM12.1723 31.7642C5.26712 29.0334 1.78398 22.4042 5.19194 15.5963L7.46244 11.0605H12.1723V31.7642ZM17.6801 32.9877C16.7373 32.9227 15.8163 32.7919 14.9262 32.5985V11.0605H17.6801V32.9877ZM23.1879 32.5985C22.2977 32.7919 21.3767 32.9227 20.434 32.9877V11.0605H23.1879V32.5985ZM32.9221 15.5963C36.3269 22.398 32.8531 29.0311 25.9418 31.7642V11.0605H30.6516L32.9221 15.5963Z" fill="#D8B250"></path></g><defs><clipPath id="clip0_1_134"><rect width="47" height="47" fill="white"></rect></clipPath></defs></svg>