<svg xmlns="http://www.w3.org/2000/svg" width="181" height="181" viewBox="0 0 181 181" fill="none"><circle cx="90.5" cy="90.5" r="90.5" fill="#FCAE09" fill-opacity="0.02"></circle><circle cx="90" cy="91" r="66" fill="#FCAE09"></circle><g clip-path="url(#clip0_7_427)"><mask id="mask0_7_427" style="mask-type:luminance" maskUnits="userSpaceOnUse" x="55" y="56" width="70" height="70"><path d="M55 56H125V126H55V56Z" fill="white"></path></mask><g mask="url(#mask0_7_427)"><path d="M104.583 114.333H69.5833C67.9792 114.333 66.6667 113.021 66.6667 111.416V76.4163C66.6667 74.8122 65.3542 73.4997 63.75 73.4997C62.1458 73.4997 60.8333 74.8122 60.8333 76.4163V114.333C60.8333 117.541 63.4583 120.166 66.6667 120.166H104.583C106.187 120.166 107.5 118.854 107.5 117.25C107.5 115.646 106.187 114.333 104.583 114.333ZM113.333 61.833H78.3333C75.125 61.833 72.5 64.458 72.5 67.6663V102.666C72.5 105.875 75.125 108.5 78.3333 108.5H113.333C116.542 108.5 119.167 105.875 119.167 102.666V67.6663C119.167 64.458 116.542 61.833 113.333 61.833ZM113.333 90.9997L106.042 86.6247L98.75 90.9997V67.6663H113.333V90.9997Z" fill="#1B1B1B"></path></g></g><defs><clipPath id="clip0_7_427"><rect width="70" height="70" fill="white" transform="translate(55 56)"></rect></clipPath></defs></svg>