<svg xmlns="http://www.w3.org/2000/svg" width="181" height="181" viewBox="0 0 181 181" fill="none"><circle cx="90.5" cy="90.5" r="90.5" fill="#FCAE09" fill-opacity="0.02"></circle><circle cx="90" cy="91" r="66" fill="#FCAE09"></circle><path fill-rule="evenodd" clip-rule="evenodd" d="M72.9167 80.1663C67.2558 80.1663 62.6667 84.7553 62.6667 90.4163V110.916C62.6667 116.577 67.2558 121.166 72.9167 121.166H107.083C112.744 121.166 117.333 116.577 117.333 110.916V90.4163C117.333 84.7553 112.744 80.1663 107.083 80.1663V69.9163C107.083 60.4815 99.4348 52.833 90 52.833C80.5652 52.833 72.9167 60.4815 72.9167 69.9163V73.333C72.9167 75.22 74.4464 76.7497 76.3333 76.7497C78.2203 76.7497 79.75 75.22 79.75 73.333V69.9163C79.75 64.2554 84.3389 59.6663 90 59.6663C95.6611 59.6663 100.25 64.2554 100.25 69.9163V80.1663H72.9167ZM93.4167 103.169C95.4592 101.987 96.8333 99.779 96.8333 97.2497C96.8333 93.4756 93.7741 90.4163 90 90.4163C86.226 90.4163 83.1667 93.4756 83.1667 97.2497C83.1667 99.779 84.5409 101.987 86.5833 103.169V107.5C86.5833 109.387 88.113 110.916 90 110.916C91.887 110.916 93.4167 109.387 93.4167 107.5V103.169Z" fill="#1B1B1B"></path></svg>