<svg xmlns="http://www.w3.org/2000/svg" width="181" height="181" viewBox="0 0 181 181" fill="none"><circle cx="90.5" cy="90.5" r="90.5" fill="#FCAE09" fill-opacity="0.02"></circle><circle cx="90" cy="91" r="66" fill="#FCAE09"></circle><g clip-path="url(#clip0_7_416)"><path d="M74.6667 109C70.3973 109 66.6 106.266 65.2213 102.197L65.128 101.89C64.8027 100.813 64.6667 99.9064 64.6667 98.9997V80.8184L58.1973 102.413C57.3653 105.589 59.2613 108.882 62.4427 109.76L103.677 120.802C104.192 120.936 104.707 121 105.213 121C107.869 121 110.296 119.237 110.976 116.64L113.379 109H74.6667Z" fill="#1B1B1B"></path><path d="M82 80.9997C84.9413 80.9997 87.3333 78.6077 87.3333 75.6663C87.3333 72.725 84.9413 70.333 82 70.333C79.0587 70.333 76.6667 72.725 76.6667 75.6663C76.6667 78.6077 79.0587 80.9997 82 80.9997Z" fill="#1B1B1B"></path><path d="M115.333 62.333H75.3333C71.6587 62.333 68.6667 65.325 68.6667 68.9997V98.333C68.6667 102.008 71.6587 105 75.3333 105H115.333C119.008 105 122 102.008 122 98.333V68.9997C122 65.325 119.008 62.333 115.333 62.333ZM75.3333 67.6663H115.333C116.069 67.6663 116.667 68.2637 116.667 68.9997V87.9303L108.243 78.101C107.349 77.053 106.056 76.493 104.667 76.461C103.285 76.469 101.989 77.0823 101.104 78.1437L91.2 90.0317L87.9733 86.813C86.1493 84.989 83.1813 84.989 81.36 86.813L74 94.1703V68.9997C74 68.2637 74.5973 67.6663 75.3333 67.6663Z" fill="#1B1B1B"></path></g><defs><clipPath id="clip0_7_416"><rect width="64" height="64" fill="white" transform="translate(58 57)"></rect></clipPath></defs></svg>