<svg xmlns="http://www.w3.org/2000/svg" width="181" height="181" viewBox="0 0 181 181" fill="none"><circle cx="90.5" cy="90.5" r="90.5" fill="#FCAE09" fill-opacity="0.02"></circle><circle cx="90" cy="91" r="66" fill="#FCAE09"></circle><g clip-path="url(#clip0_7_423)"><path d="M62.6914 59C60.656 59 59 60.656 59 62.6914V73.7656H66.3828V62.6914C66.3828 60.656 64.7268 59 62.6914 59Z" fill="#1B1B1B"></path><path d="M81.1484 118.309C81.1484 119.653 80.7856 120.913 80.1552 122H110.721C112.756 122 114.412 120.344 114.412 118.309V110.926H81.1484V118.309Z" fill="#1B1B1B"></path><path d="M106.968 107.234V97.9302C104.896 99.3543 102.543 100.142 100.246 100.142C98.6216 100.142 97.1039 99.7315 95.8257 98.9666L91.7899 103.002C91.4295 103.363 90.957 103.543 90.4849 103.543C90.0125 103.543 89.5401 103.363 89.1797 103.002C88.4589 102.282 88.4589 101.113 89.1797 100.392L93.2105 96.3616C92.2298 94.7383 91.8477 92.7514 92.1279 90.6026C92.4761 87.9334 93.8239 85.3074 95.9229 83.2084C99.0527 80.0785 102.992 77.105 106.968 74.4772V64.5371C106.968 61.4839 104.484 59 101.431 59H69.081C69.7113 60.0868 70.0742 61.3471 70.0742 62.6914V118.309C70.0742 120.344 71.7302 122 73.7656 122C75.8011 122 77.457 120.344 77.457 118.309V110.926C77.457 108.887 79.1098 107.234 81.1484 107.234H106.968ZM79.3027 70.0742H97.7598C98.7791 70.0742 99.6055 70.9006 99.6055 71.9199C99.6055 72.9392 98.7791 73.7656 97.7598 73.7656H79.3027C78.2834 73.7656 77.457 72.9392 77.457 71.9199C77.457 70.9006 78.2834 70.0742 79.3027 70.0742ZM76.2881 77.457H92.8379C93.8572 77.457 94.6836 78.2834 94.6836 79.3027C94.6836 80.3221 93.8572 81.1484 92.8379 81.1484H76.2881C75.2688 81.1484 74.4424 80.3221 74.4424 79.3027C74.4424 78.2834 75.2688 77.457 76.2881 77.457ZM76.2881 84.8398H85.4551C86.4744 84.8398 87.3008 85.6662 87.3008 86.6855C87.3008 87.7049 86.4744 88.5312 85.4551 88.5312H76.2881C75.2688 88.5312 74.4424 87.7049 74.4424 86.6855C74.4424 85.6662 75.2688 84.8398 76.2881 84.8398ZM76.2881 95.9141C75.2688 95.9141 74.4424 95.0877 74.4424 94.0684C74.4424 93.049 75.2688 92.2227 76.2881 92.2227H85.4551C86.4744 92.2227 87.3008 93.049 87.3008 94.0684C87.3008 95.0877 86.4744 95.9141 85.4551 95.9141H76.2881Z" fill="#1B1B1B"></path><path d="M98.5927 96.1995C99.1845 96.3927 99.7673 96.4504 100.246 96.4504C102.323 96.4504 104.61 95.403 106.364 93.6489C111.77 88.2429 118.385 76.6903 122 70.0322C115.725 73.2643 105.091 79.26 98.5331 85.8183C97.0066 87.3448 96.0318 89.2134 95.7883 91.0798C95.6688 91.9947 95.7391 92.8449 95.9833 93.5884L101.013 88.559C101.734 87.8382 102.902 87.8382 103.623 88.559C104.344 89.2798 104.344 90.4487 103.623 91.1692L98.5927 96.1995Z" fill="#1B1B1B"></path></g><defs><clipPath id="clip0_7_423"><rect width="63" height="63" fill="white" transform="translate(59 59)"></rect></clipPath></defs></svg>