<svg xmlns="http://www.w3.org/2000/svg" width="107" height="43" viewBox="0 0 107 43" fill="none"><path d="M0.943807 21V20.5145L2.22381 20.2276C2.54749 20.154 2.79025 20.051 2.95208 19.9186C3.12864 19.7715 3.26841 19.5802 3.3714 19.3448L7.87347 8.68551L7.18933 6.98619C7.66013 6.97148 8.05738 6.88321 8.38105 6.72137C8.70473 6.54481 8.94749 6.35355 9.10933 6.14757C9.27117 5.92688 9.35209 5.74297 9.35209 5.59585H9.66106L15.4431 19.6317C15.5167 19.8083 15.6344 19.9407 15.7962 20.029C15.9581 20.1172 16.2155 20.1982 16.5686 20.2717L17.6942 20.5145V21H9.97002V20.5145L11.0955 20.2717C11.4192 20.1982 11.6546 20.1099 11.8017 20.0069C11.9636 19.8892 12.0445 19.7347 12.0445 19.5434C12.0445 19.4699 12.0298 19.3963 12.0004 19.3228C11.9857 19.2492 11.9636 19.1683 11.9342 19.08L8.00588 9.23723H8.4914L4.21002 19.3669C4.1953 19.411 4.18059 19.4552 4.16588 19.4993C4.16588 19.5434 4.16588 19.5802 4.16588 19.6097C4.16588 19.7421 4.21737 19.8598 4.32036 19.9628C4.42335 20.0657 4.59255 20.1393 4.82795 20.1834L6.72588 20.5145V21H0.943807ZM5.60036 16.0124V15.2841H11.89V16.0124H5.60036ZM24.7499 21V20.5145L25.8754 20.2717C26.3903 20.154 26.714 20.0216 26.8464 19.8745C26.9935 19.7274 27.0671 19.4257 27.0671 18.9697V8.17792C27.0671 7.70711 26.9935 7.39815 26.8464 7.25102C26.714 7.1039 26.3903 6.97884 25.8754 6.87585L24.7499 6.63309V6.14757H32.9154C33.9306 6.14757 34.8133 6.2947 35.5637 6.58895C36.314 6.86849 36.8952 7.26573 37.3071 7.78068C37.7338 8.29562 37.9471 8.89884 37.9471 9.59033C37.9471 10.5172 37.6308 11.2308 36.9981 11.731C36.3802 12.2313 35.5563 12.5549 34.5264 12.7021V12.7462C35.2473 12.7903 35.9315 12.9669 36.5788 13.2759C37.2262 13.5848 37.7485 14.0188 38.1457 14.5779C38.5577 15.1223 38.7637 15.7697 38.7637 16.52C38.7637 17.6234 38.4768 18.5062 37.903 19.1683C37.3292 19.8156 36.5641 20.2864 35.6078 20.5807C34.6662 20.8602 33.6216 21 32.474 21H24.7499ZM31.4588 20.2717H32.0547C32.7168 20.2717 33.2832 20.1172 33.754 19.8083C34.2248 19.4846 34.5853 19.0432 34.8354 18.4841C35.1002 17.9103 35.2326 17.2556 35.2326 16.52C35.2326 15.8138 35.1223 15.2179 34.9016 14.7324C34.6809 14.2322 34.3278 13.857 33.8423 13.6069C33.3715 13.3421 32.7462 13.2096 31.9664 13.2096H30.1568V19.0579C30.1568 19.5434 30.245 19.8671 30.4216 20.029C30.6129 20.1908 30.9586 20.2717 31.4588 20.2717ZM30.1568 12.4814H32.1209C32.9007 12.4814 33.5039 12.1945 33.9306 11.6207C34.3719 11.0469 34.5926 10.3775 34.5926 9.6124C34.5926 8.78849 34.3278 8.12642 33.7981 7.62619C33.2832 7.12596 32.5623 6.87585 31.6354 6.87585H30.1568V12.4814ZM40.5257 21V20.5145L41.6513 20.2717C42.1662 20.154 42.4899 20.0216 42.6223 19.8745C42.7694 19.7274 42.843 19.4257 42.843 18.9697V8.17792C42.843 7.70711 42.7694 7.39815 42.6223 7.25102C42.4899 7.1039 42.1662 6.97884 41.6513 6.87585L40.5257 6.63309V6.14757H48.2499V6.63309L47.1244 6.87585C46.6241 6.97884 46.3005 7.1039 46.1533 7.25102C46.0062 7.39815 45.9326 7.70711 45.9326 8.17792V18.9697C45.9326 19.4257 46.0062 19.7274 46.1533 19.8745C46.3005 20.0216 46.6241 20.154 47.1244 20.2717L48.2499 20.5145V21H40.5257ZM42.9975 4.7793L42.7547 4.29378L46.2637 2.04274C46.6462 1.77791 47.0214 1.71906 47.3892 1.86619C47.6687 1.96918 47.8526 2.14573 47.9409 2.39584C48.0292 2.63125 48.0292 2.85929 47.9409 3.07998C47.8821 3.22711 47.7791 3.36688 47.6319 3.49929C47.4995 3.63171 47.323 3.71998 47.1023 3.76412L42.9975 4.7793ZM49.5775 21V20.5145L50.703 20.2717C51.2179 20.154 51.5416 20.0216 51.674 19.8745C51.8212 19.7274 51.8947 19.4257 51.8947 18.9697V8.17792C51.8947 7.70711 51.8212 7.39815 51.674 7.25102C51.5416 7.1039 51.2179 6.97884 50.703 6.87585L49.5775 6.63309V6.14757H57.743C58.7582 6.14757 59.6409 6.2947 60.3913 6.58895C61.1416 6.86849 61.7228 7.26573 62.1347 7.78068C62.5614 8.29562 62.7747 8.89884 62.7747 9.59033C62.7747 10.5172 62.4584 11.2308 61.8258 11.731C61.2078 12.2313 60.3839 12.5549 59.354 12.7021V12.7462C60.075 12.7903 60.7591 12.9669 61.4064 13.2759C62.0538 13.5848 62.5761 14.0188 62.9733 14.5779C63.3853 15.1223 63.5913 15.7697 63.5913 16.52C63.5913 17.6234 63.3044 18.5062 62.7306 19.1683C62.1568 19.8156 61.3917 20.2864 60.4354 20.5807C59.4938 20.8602 58.4492 21 57.3016 21H49.5775ZM56.2864 20.2717H56.8823C57.5444 20.2717 58.1108 20.1172 58.5816 19.8083C59.0524 19.4846 59.4129 19.0432 59.663 18.4841C59.9278 17.9103 60.0602 17.2556 60.0602 16.52C60.0602 15.8138 59.9499 15.2179 59.7292 14.7324C59.5085 14.2322 59.1554 13.857 58.6699 13.6069C58.1991 13.3421 57.5738 13.2096 56.794 13.2096H54.9844V19.0579C54.9844 19.5434 55.0726 19.8671 55.2492 20.029C55.4405 20.1908 55.7862 20.2717 56.2864 20.2717ZM54.9844 12.4814H56.9485C57.7283 12.4814 58.3315 12.1945 58.7582 11.6207C59.1995 11.0469 59.4202 10.3775 59.4202 9.6124C59.4202 8.78849 59.1554 8.12642 58.6258 7.62619C58.1108 7.12596 57.3899 6.87585 56.463 6.87585H54.9844V12.4814ZM65.3533 21V20.5145L66.4789 20.2717C66.9938 20.154 67.3175 20.0216 67.4499 19.8745C67.597 19.7274 67.6706 19.4257 67.6706 18.9697V8.17792C67.6706 7.70711 67.597 7.39815 67.4499 7.25102C67.3175 7.1039 66.9938 6.97884 66.4789 6.87585L65.3533 6.63309V6.14757H73.0775V6.63309L71.952 6.87585C71.4517 6.97884 71.1281 7.1039 70.9809 7.25102C70.8338 7.39815 70.7602 7.70711 70.7602 8.17792V18.9697C70.7602 19.3669 70.8632 19.6832 71.0692 19.9186C71.2899 20.154 71.6945 20.2717 72.283 20.2717H75.0637C75.6228 20.2717 76.1157 20.2055 76.5423 20.0731C76.969 19.926 77.3442 19.7126 77.6678 19.4331C77.9915 19.1388 78.2784 18.7784 78.5285 18.3517L79.5658 16.6524H80.0513C79.9042 17.2998 79.757 18.0207 79.6099 18.8152C79.4775 19.5949 79.4113 20.3232 79.4113 21H65.3533ZM80.8275 21V20.5145L81.953 20.2717C82.468 20.154 82.7916 20.0216 82.9241 19.8745C83.0712 19.7274 83.1447 19.4257 83.1447 18.9697V8.17792C83.1447 7.70711 83.0712 7.39815 82.9241 7.25102C82.7916 7.1039 82.468 6.97884 81.953 6.87585L80.8275 6.63309V6.14757H88.5517V6.63309L87.4261 6.87585C86.9259 6.97884 86.6022 7.1039 86.4551 7.25102C86.308 7.39815 86.2344 7.70711 86.2344 8.17792V18.9697C86.2344 19.4257 86.308 19.7274 86.4551 19.8745C86.6022 20.0216 86.9259 20.154 87.4261 20.2717L88.5517 20.5145V21H80.8275ZM89.3275 21V20.5145L90.6075 20.2276C90.9312 20.154 91.1739 20.051 91.3358 19.9186C91.5123 19.7715 91.6521 19.5802 91.7551 19.3448L96.2572 8.68551L95.573 6.98619C96.0438 6.97148 96.4411 6.88321 96.7648 6.72137C97.0884 6.54481 97.3312 6.35355 97.493 6.14757C97.6549 5.92688 97.7358 5.74297 97.7358 5.59585H98.0448L103.827 19.6317C103.9 19.8083 104.018 19.9407 104.18 20.029C104.342 20.1172 104.599 20.1982 104.952 20.2717L106.078 20.5145V21H98.3537V20.5145L99.4792 20.2717C99.8029 20.1982 100.038 20.1099 100.185 20.0069C100.347 19.8892 100.428 19.7347 100.428 19.5434C100.428 19.4699 100.413 19.3963 100.384 19.3228C100.369 19.2492 100.347 19.1683 100.318 19.08L96.3896 9.23723H96.8751L92.5937 19.3669C92.579 19.411 92.5643 19.4552 92.5496 19.4993C92.5496 19.5434 92.5496 19.5802 92.5496 19.6097C92.5496 19.7421 92.6011 19.8598 92.7041 19.9628C92.8071 20.0657 92.9762 20.1393 93.2116 20.1834L95.1096 20.5145V21H89.3275ZM93.9841 16.0124V15.2841H100.274V16.0124H93.9841Z" fill="white"></path><path d="M0.927584 37.8404V37.5314L1.97445 37.3427C2.44354 37.2511 2.74101 37.1482 2.86686 37.0338C3.00415 36.9193 3.0728 36.6848 3.0728 36.3301V27.8008C3.0728 27.4346 3.00415 27.1944 2.86686 27.08C2.74101 26.9655 2.44354 26.8683 1.97445 26.7882L0.927584 26.5994V26.2905H10.6926C10.6583 26.4507 10.6297 26.6109 10.6068 26.771C10.5954 26.9312 10.5896 27.0914 10.5896 27.2516C10.5896 27.6749 10.624 28.0696 10.6926 28.4357C10.7727 28.7904 10.8299 29.0879 10.8642 29.3281H10.521C10.3494 28.8247 10.1491 28.3785 9.92033 27.9895C9.70294 27.5891 9.4112 27.2745 9.04508 27.0456C8.67896 26.8168 8.20415 26.7024 7.62066 26.7024H4.63452V31.5077H7.36323C7.95817 31.5077 8.35289 31.4047 8.54739 31.1988C8.75333 30.9928 8.90206 30.6496 8.99359 30.1691L9.14805 29.3625H9.45696V34.1334H9.14805L8.99359 33.3268C8.90206 32.8463 8.75333 32.5031 8.54739 32.2971C8.35289 32.0912 7.95817 31.9882 7.36323 31.9882H4.63452V36.2958C4.63452 36.5704 4.66884 36.7935 4.73749 36.9651C4.80613 37.1253 4.93771 37.2397 5.13221 37.3083C5.32671 37.377 5.60701 37.4113 5.97313 37.4113H7.55201C8.0211 37.4113 8.45586 37.3198 8.8563 37.1367C9.25674 36.9537 9.59997 36.7248 9.886 36.4503C10.1835 36.1642 10.4009 35.8896 10.5381 35.6265L10.9844 34.7512H11.3104C11.1617 35.2775 11.053 35.8153 10.9844 36.3645C10.9157 36.9022 10.8757 37.3942 10.8642 37.8404H0.927584ZM19.8153 37.9948L15.6106 27.8866L15.2159 36.313C15.2045 36.6676 15.2674 36.9022 15.4047 37.0166C15.542 37.131 15.8452 37.234 16.3143 37.3255L17.3783 37.5314V37.8404H12.5902V37.5314L13.637 37.3255C13.9574 37.2569 14.1919 37.1939 14.3407 37.1367C14.4894 37.0681 14.5867 36.9766 14.6324 36.8621C14.6896 36.7363 14.724 36.5532 14.7354 36.313L15.0958 27.9037C15.1187 27.5376 15.0557 27.2745 14.907 27.1143C14.7583 26.9541 14.4551 26.8283 13.9974 26.7367L13.2766 26.5994V26.2905H16.5717L20.3988 35.2318L24.14 26.2905H27.641V26.5994L26.6113 26.771C26.1537 26.8511 25.8505 26.9655 25.7017 27.1143C25.5644 27.263 25.5015 27.5319 25.513 27.9209L25.7361 36.3301C25.7475 36.5704 25.7761 36.7534 25.8219 36.8793C25.8676 37.0052 25.9706 37.1024 26.1308 37.1711C26.291 37.2283 26.5255 37.2855 26.8344 37.3427L27.8813 37.5314V37.8404H22.3895V37.5314L23.5908 37.3083C23.8197 37.2626 23.9684 37.1997 24.037 37.1196C24.1057 37.0395 24.14 36.9079 24.14 36.7248L23.9684 28.2126L19.9354 37.9948H19.8153ZM40.8484 37.9948L36.6438 27.8866L36.2491 36.313C36.2376 36.6676 36.3006 36.9022 36.4379 37.0166C36.5752 37.131 36.8783 37.234 37.3474 37.3255L38.4115 37.5314V37.8404H33.6233V37.5314L34.6702 37.3255C34.9906 37.2569 35.2251 37.1939 35.3738 37.1367C35.5226 37.0681 35.6198 36.9766 35.6656 36.8621C35.7228 36.7363 35.7571 36.5532 35.7686 36.313L36.129 27.9037C36.1518 27.5376 36.0889 27.2745 35.9402 27.1143C35.7914 26.9541 35.4882 26.8283 35.0306 26.7367L34.3098 26.5994V26.2905H37.6049L41.4319 35.2318L45.1732 26.2905H48.6742V26.5994L47.6445 26.771C47.1868 26.8511 46.8836 26.9655 46.7349 27.1143C46.5976 27.263 46.5347 27.5319 46.5461 27.9209L46.7692 36.3301C46.7807 36.5704 46.8093 36.7534 46.855 36.8793C46.9008 37.0052 47.0038 37.1024 47.1639 37.1711C47.3241 37.2283 47.5587 37.2855 47.8676 37.3427L48.9144 37.5314V37.8404H43.4227V37.5314L44.624 37.3083C44.8528 37.2626 45.0016 37.1997 45.0702 37.1196C45.1389 37.0395 45.1732 36.9079 45.1732 36.7248L45.0016 28.2126L40.9686 37.9948H40.8484ZM56.3101 38.0463C55.7151 38.0463 55.1602 37.9548 54.6454 37.7717C54.1305 37.5772 53.6786 37.3026 53.2896 36.9479C52.912 36.5818 52.6146 36.1413 52.3972 35.6265C52.1913 35.1116 52.0883 34.5281 52.0883 33.876V27.8008C52.0883 27.4346 52.0196 27.1944 51.8823 27.08C51.7565 26.9655 51.459 26.8683 50.9899 26.7882L49.9431 26.5994V26.2905H55.7781V26.5994L54.7312 26.7882C54.2621 26.8683 53.9589 26.9655 53.8216 27.08C53.6958 27.1944 53.6328 27.4346 53.6328 27.8008V33.8588C53.6328 34.9343 53.9189 35.7638 54.4909 36.3473C55.0744 36.9193 55.8467 37.2054 56.8078 37.2054C57.5057 37.2054 58.0892 37.0681 58.5582 36.7935C59.0388 36.5189 59.4049 36.1299 59.6566 35.6265C59.9083 35.1116 60.0342 34.4995 60.0342 33.7902V27.9209C60.0342 27.5548 59.9655 27.2973 59.8282 27.1486C59.7024 26.9884 59.4049 26.8683 58.9358 26.7882L57.8889 26.5994V26.2905H62.6771V26.5994L61.6302 26.7882C61.1611 26.8683 60.8579 26.977 60.7206 27.1143C60.5948 27.2516 60.5318 27.5033 60.5318 27.8694V35.9526C60.303 35.9526 60.1028 36.0327 59.9312 36.1928C59.7596 36.353 59.5651 36.5418 59.3477 36.7592C59.1646 36.9537 58.9415 37.1539 58.6784 37.3598C58.4267 37.5543 58.1063 37.7145 57.7173 37.8404C57.3398 37.9777 56.8707 38.0463 56.3101 38.0463ZM55.3147 25.2265L55.1259 24.8661L58.0262 23.0641C58.175 22.9726 58.3409 22.9554 58.5239 23.0126C58.6841 23.0584 58.7928 23.1556 58.85 23.3044C58.9186 23.4531 58.9244 23.6019 58.8672 23.7506C58.8214 23.8993 58.747 23.9966 58.6441 24.0423C58.5525 24.0881 58.4667 24.1224 58.3866 24.1453L55.3147 25.2265ZM68.0485 37.9777C67.1104 37.9777 66.3038 37.8575 65.6287 37.6173C64.9652 37.3656 64.4389 37.1367 64.0499 36.9308C64.1414 36.4274 64.1814 35.9182 64.17 35.4034C64.17 34.8771 64.1014 34.3451 63.9641 33.8074H64.4617C64.5533 34.5167 64.7478 35.1574 65.0452 35.7295C65.3542 36.2901 65.766 36.7363 66.2809 37.0681C66.7957 37.3999 67.4193 37.5658 68.1515 37.5658C68.6435 37.5658 69.0783 37.4742 69.4558 37.2912C69.8448 37.0967 70.148 36.8335 70.3654 36.5017C70.5942 36.17 70.7086 35.7867 70.7086 35.3519C70.7086 34.9057 70.6171 34.5396 70.434 34.2536C70.2624 33.9561 69.9535 33.6872 69.5073 33.447C69.0611 33.1953 68.4204 32.9264 67.5852 32.6404C66.5669 32.2857 65.7775 31.8738 65.2169 31.4047C64.6677 30.9242 64.3931 30.2434 64.3931 29.3625C64.3931 28.779 64.5304 28.2412 64.805 27.7493C65.0796 27.2459 65.4915 26.8454 66.0406 26.5479C66.5898 26.239 67.2706 26.0846 68.0829 26.0846C68.4375 26.0846 68.7407 26.1303 68.9924 26.2219C69.2441 26.3134 69.4787 26.4107 69.6961 26.5136C69.8677 26.5937 70.0336 26.6681 70.1938 26.7367C70.3539 26.8054 70.5141 26.8397 70.6743 26.8397L71.1033 26.7539L71.172 26.8054C71.1605 26.9541 71.1491 27.0971 71.1377 27.2344C71.1262 27.3717 71.1205 27.509 71.1205 27.6463C71.1205 27.8866 71.1319 28.1268 71.1548 28.3671C71.1777 28.5959 71.212 28.8247 71.2578 29.0536C71.3036 29.2824 71.355 29.5112 71.4122 29.74H71.0347C70.8059 29.1451 70.5599 28.6074 70.2967 28.1268C70.0336 27.6349 69.7075 27.2459 69.3185 26.9598C68.941 26.6624 68.4547 26.5136 67.8598 26.5136C67.4822 26.5136 67.1275 26.5937 66.7957 26.7539C66.4639 26.9141 66.1951 27.1486 65.9891 27.4575C65.7832 27.7664 65.6802 28.144 65.6802 28.5902C65.6802 29.025 65.7546 29.3854 65.9033 29.6714C66.0521 29.946 66.3324 30.1977 66.7443 30.4265C67.1676 30.6439 67.7854 30.8956 68.5977 31.1816C69.4444 31.4676 70.1137 31.7708 70.6056 32.0912C71.0976 32.4001 71.4466 32.7548 71.6525 33.1552C71.8699 33.5556 71.9786 34.0419 71.9786 34.614C71.9786 35.2432 71.8127 35.8153 71.4809 36.3301C71.1491 36.8335 70.6857 37.234 70.0908 37.5314C69.5073 37.8289 68.8265 37.9777 68.0485 37.9777ZM73.5297 37.8404V37.5314L74.5766 37.3427C75.0457 37.2511 75.3431 37.1482 75.469 37.0338C75.6063 36.9193 75.6749 36.6848 75.6749 36.3301V27.8008C75.6749 27.4346 75.6063 27.1944 75.469 27.08C75.3431 26.9655 75.0457 26.8683 74.5766 26.7882L73.5297 26.5994V26.2905H79.3647V26.5994L78.3178 26.7882C77.8487 26.8683 77.5455 26.9655 77.4082 27.08C77.2824 27.1944 77.2195 27.4346 77.2195 27.8008V36.3301C77.2195 36.6848 77.2824 36.9193 77.4082 37.0338C77.5455 37.1482 77.8487 37.2511 78.3178 37.3427L79.3647 37.5314V37.8404H73.5297ZM86.9145 38.0463C86.0107 38.0463 85.1869 37.8976 84.4432 37.6001C83.6995 37.2912 83.0531 36.8621 82.5039 36.313C81.9662 35.7638 81.5486 35.1288 81.2511 34.408C80.9651 33.6758 80.8221 32.8921 80.8221 32.0569C80.8221 31.1759 80.9823 30.375 81.3026 29.6542C81.6344 28.922 82.0806 28.2984 82.6412 27.7836C83.2133 27.2573 83.8597 26.8569 84.5805 26.5823C85.3013 26.2962 86.0564 26.1532 86.8459 26.1532C87.4751 26.1532 87.9957 26.2047 88.4076 26.3077C88.8195 26.3992 89.1799 26.4965 89.4888 26.5994C89.729 26.6795 89.9464 26.7539 90.1409 26.8225C90.3469 26.8797 90.5585 26.9083 90.7759 26.9083C90.9017 26.9083 91.0104 26.8969 91.102 26.874C91.1935 26.8511 91.2965 26.834 91.4109 26.8225L91.4452 26.8569C91.3994 27.1314 91.3766 27.5033 91.3766 27.9724C91.388 28.4415 91.4852 29.0536 91.6683 29.8087H91.3251C91.142 29.3281 90.8445 28.8419 90.4327 28.3499C90.0322 27.8465 89.5345 27.4289 88.9396 27.0971C88.3447 26.7539 87.6696 26.5823 86.9145 26.5823C86.1251 26.5823 85.3928 26.8168 84.7178 27.2859C84.0542 27.7435 83.5165 28.3843 83.1046 29.208C82.7042 30.0203 82.5039 30.9585 82.5039 32.0225C82.5039 33.0866 82.6927 34.0419 83.0703 34.8885C83.4593 35.7352 83.9856 36.4045 84.6492 36.8965C85.3242 37.3884 86.085 37.6344 86.9317 37.6344C87.1719 37.6344 87.4866 37.6001 87.8756 37.5314C88.2646 37.4514 88.6764 37.3026 89.1112 37.0852C89.5574 36.8679 89.9807 36.5361 90.3812 36.0899C90.7816 35.6437 91.1134 35.0544 91.3766 34.3222H91.7198C91.6054 34.8714 91.5024 35.4091 91.4109 35.9354C91.3194 36.4617 91.2736 36.9537 91.2736 37.4113H91.102C90.8617 37.4113 90.5814 37.4399 90.261 37.4971C89.9521 37.5543 89.6089 37.623 89.2313 37.7031C88.8423 37.7832 88.4419 37.8575 88.03 37.9262C87.6181 38.0063 87.2463 38.0463 86.9145 38.0463ZM92.7555 37.8404V37.5314L93.5621 37.3942C93.9511 37.3255 94.2486 37.2168 94.4545 37.0681C94.6605 36.9079 94.8207 36.6848 94.9351 36.3988L98.4189 27.8866L98.0585 26.9427C98.2988 26.9312 98.499 26.8626 98.6592 26.7367C98.8193 26.5994 98.9395 26.4507 99.0196 26.2905C99.0996 26.1189 99.1397 25.9759 99.1397 25.8615H99.2941L103.482 36.0041C103.688 36.5075 103.899 36.8507 104.117 37.0338C104.345 37.2054 104.637 37.3255 104.992 37.3942L105.678 37.5314V37.8404H100.032V37.5314L100.959 37.377C101.325 37.3198 101.577 37.2511 101.714 37.1711C101.851 37.091 101.92 36.9823 101.92 36.845C101.92 36.7534 101.897 36.6448 101.851 36.5189C101.805 36.3931 101.754 36.25 101.697 36.0899L98.5562 28.1611H98.9509L95.5357 36.4331C95.5014 36.5132 95.4728 36.5933 95.4499 36.6734C95.427 36.742 95.4156 36.8049 95.4156 36.8621C95.4156 36.9994 95.4671 37.1024 95.5701 37.1711C95.6845 37.2397 95.8446 37.2912 96.0506 37.3255L97.1661 37.5314V37.8404H92.7555ZM96.5654 33.9103L96.4453 33.3611H101.474V33.9103H96.5654Z" fill="white"></path></svg>